# xmcd CD database file
#
# Track frame offsets:
#	150
#	23762
#	33870
#	59472
#	67280
#	97190
#	126800
#	165795
#	172005
#	193922
#	202500
#	218782
#	225117
#
# Disc length: 3226 seconds
#
# Revision: 0
# Processed by: cddbd v1.5.2PL0 Copyright (c) Steve Scherf et al.
# Submitted via: CDex 1.70beta2
#
DISCID=aa0c980d
DTITLE=Oregon - Northwest Passage
DYEAR=1997
DGENRE=Jazz
TTITLE0=Take Heart
TTITLE1=Don¨t Knock On My Door
TTITLE2=Lost In The Hours
TTITLE3=Over Your Shoulder
TTITLE4=Claridade
TTITLE5=Joyful Departure
TTITLE6=Nightfall
TTITLE7=Under A Dorian Sky
TTITLE8=Fortune Cookie
TTITLE9=Under The Mountain
TTITLE10=L'Assassino Che Suona
TTITLE11=Intro
TTITLE12=Yet To Be
EXTD=YEAR: 1997
EXTT0=
EXTT1=
EXTT2=
EXTT3=
EXTT4=
EXTT5=
EXTT6=
EXTT7=
EXTT8=
EXTT9=
EXTT10=
EXTT11=
EXTT12=
PLAYORDER=
